<svg width="23" height="20" viewBox="0 0 23 20" fill="none" xmlns="http://www.w3.org/2000/svg">
<path d="M7.3125 19.5C8.20993 19.5 8.9375 18.7724 8.9375 17.875C8.9375 16.9776 8.20993 16.25 7.3125 16.25C6.41504 16.25 5.6875 16.9776 5.6875 17.875C5.6875 18.7724 6.41504 19.5 7.3125 19.5Z" fill="white"/>
<path d="M18.6875 19.5C19.5849 19.5 20.3125 18.7724 20.3125 17.875C20.3125 16.9776 19.5849 16.25 18.6875 16.25C17.7901 16.25 17.0625 16.9776 17.0625 17.875C17.0625 18.7724 17.7901 19.5 18.6875 19.5Z" fill="white"/>
<path d="M6.89508 12.1875H20.1662L22.1162 2.4375H5.1741L4.74399 0H0V1.625H3.38101L5.81851 15.4375H20.3125V13.8125H7.18146L6.89508 12.1875Z" fill="white"/>
</svg>
