<svg width="111" height="40" viewBox="0 0 111 40" fill="none" xmlns="http://www.w3.org/2000/svg">
<path fill-rule="evenodd" clip-rule="evenodd" d="M48.3108 6.67517C48.3108 6.67517 48.3108 6.67517 50.6352 6.67517C51.4895 6.67517 51.9067 7.09237 51.9067 8.04597C51.9067 8.04597 51.9067 8.04597 51.9067 11.3836C51.9067 11.3836 51.9067 11.3836 56.4561 11.3836C56.4561 11.3836 56.4561 11.3836 56.4561 8.04597C56.4561 7.09237 56.8733 6.67517 57.8269 6.67517C57.8269 6.67517 57.8269 6.67517 60.052 6.67517C60.052 6.67517 60.052 6.67517 60.052 8.88037C60.052 8.88037 60.052 8.88037 59.0984 8.88037L58.9991 8.9797C58.9991 8.9797 58.9991 8.9797 58.9991 18.3965C58.9991 18.3965 58.9991 18.3965 56.4561 18.3965C56.4561 18.3965 56.4561 18.3965 56.4561 13.6881C56.4561 13.6881 56.4561 13.6881 51.9067 13.6881C51.9067 13.6881 51.9067 13.6881 51.9067 18.3965C51.9067 18.3965 51.9067 18.3965 49.3637 18.3965C49.3637 18.3965 49.3637 18.3965 49.3637 8.9797C49.3637 8.9797 49.3637 8.88037 49.2644 8.88037C49.2644 8.88037 49.2644 8.88037 48.3108 8.88037C48.3108 8.88037 48.3108 8.88037 48.3108 6.67517Z" fill="#DC3545"/>
<path fill-rule="evenodd" clip-rule="evenodd" d="M66.7074 6.47656H66.767V8.9003L66.7074 8.88043C64.8002 8.88043 63.3301 10.4499 63.3301 12.4366C63.3301 14.5226 64.8002 16.2112 66.7074 16.2112L66.767 16.1914V18.5952L66.7074 18.6151C63.3301 18.6151 60.5686 15.8934 60.5686 12.4366C60.5686 9.09896 63.3301 6.47656 66.7074 6.47656Z" fill="#DC3545"/>
<path fill-rule="evenodd" clip-rule="evenodd" d="M66.7668 6.47656L67.939 6.59576C70.7402 7.13216 72.846 9.51616 72.846 12.4366C72.846 15.4563 70.7402 17.9198 67.939 18.476L66.7668 18.5952V16.1914L68.0582 15.9132C69.3098 15.3371 70.2038 14.006 70.2038 12.4366C70.2038 10.9466 69.3098 9.69496 68.0582 9.15856L66.7668 8.9003V6.47656Z" fill="#DC3545"/>
<path fill-rule="evenodd" clip-rule="evenodd" d="M73.3625 6.67517C73.3625 6.67517 73.3625 6.67517 76.9187 6.67517H78.6073V8.88037H78.4484C78.2299 8.88037 77.8127 8.88037 76.9584 8.88037C76.9584 8.88037 76.9584 8.88037 76.9584 11.2842C76.9584 11.2842 76.9584 11.2842 77.6736 11.2842H78.6073V13.3702H78.0709C77.7928 13.3702 77.4352 13.3702 76.9584 13.3702C76.9584 13.3702 76.9584 13.3702 76.9584 15.9926C76.9584 16.092 76.9584 16.092 77.0776 16.092C77.0776 16.092 77.0776 16.092 77.8325 16.092H78.6073V18.3965H78.3888C77.9915 18.3965 77.2365 18.3965 75.7068 18.3965C74.8525 18.3965 74.4353 17.9793 74.4353 17.0456V8.88037C74.4353 8.88037 74.4353 8.88037 73.3625 8.88037C73.3625 8.88037 73.3625 8.88037 73.3625 6.67517Z" fill="#DC3545"/>
<path fill-rule="evenodd" clip-rule="evenodd" d="M78.6074 6.67517H78.6472C80.9914 6.67517 82.3622 7.94664 82.3622 9.83397C82.3622 10.9664 81.8258 11.7014 81.3093 12.2378C82.2629 12.655 82.8788 13.6881 82.8788 14.8404C82.8788 17.0456 81.1901 18.3965 78.7664 18.3965C78.7664 18.3965 78.7664 18.3965 78.7266 18.3965H78.6074V16.092H78.8657C79.72 16.092 80.2365 15.5754 80.2365 14.741C80.2365 13.9066 79.72 13.3702 78.8657 13.3702C78.8657 13.3702 78.8657 13.3702 78.6273 13.3702H78.6074V11.2842H78.6472C79.4021 11.2842 79.8193 10.7677 79.8193 10.0326C79.8193 9.29757 79.4021 8.88037 78.6472 8.88037C78.6472 8.88037 78.6472 8.88037 78.6273 8.88037H78.6074V6.67517Z" fill="#DC3545"/>
<path fill-rule="evenodd" clip-rule="evenodd" d="M87.746 6.67517C87.746 6.67517 87.746 6.67517 88.8188 6.67517H89.0175V10.0326C88.9181 10.2512 88.7989 10.5492 88.7989 10.867C88.7989 10.867 88.7989 10.867 87.9645 13.2709C87.9645 13.2709 87.9645 13.2709 88.8585 13.2709H89.0175V15.4761H88.4413C88.1235 15.4761 87.746 15.4761 87.3288 15.4761C87.3288 15.4761 87.3288 15.4761 86.5937 17.3634C86.3752 18.0786 85.958 18.3965 85.1037 18.3965C85.1037 18.3965 85.1037 18.3965 83.5144 18.3965C83.5144 18.3965 83.5144 18.3965 83.5144 16.092C83.5144 16.092 83.5144 16.092 84.0508 16.092C84.2693 16.092 84.2693 16.092 84.3687 15.9926C84.3687 15.9926 84.3687 15.9926 87.746 6.67517Z" fill="#DC3545"/>
<path fill-rule="evenodd" clip-rule="evenodd" d="M89.0176 6.67517H90.289C90.289 6.67517 90.289 6.67517 93.6664 15.9926C93.7657 16.092 93.7657 16.092 93.9842 16.092C93.9842 16.092 93.9842 16.092 94.4014 16.092C94.4014 16.092 94.4014 16.092 94.4014 18.3965C94.4014 18.3965 94.4014 18.3965 92.9313 18.3965C92.077 18.3965 91.6598 18.0786 91.4413 17.2442C91.4413 17.2442 91.4413 17.2442 90.7062 15.4761C90.7062 15.4761 90.7062 15.4761 89.2758 15.4761H89.0176V13.2709H90.0705C90.0705 13.2709 90.0705 13.2709 89.2361 10.867C89.2361 10.5492 89.1169 10.2512 89.0176 10.0326V6.67517Z" fill="#DC3545"/>
<path fill-rule="evenodd" clip-rule="evenodd" d="M48.3108 21.7341C48.3108 21.7341 48.3108 21.7341 57.5091 21.7341C58.3633 21.7341 58.8799 22.1712 58.8799 23.1049C58.8799 23.1049 58.8799 23.1049 58.8799 31.0516C58.8799 31.1509 58.8799 31.1509 58.9991 31.1509C58.9991 31.1509 58.9991 31.1509 59.8335 31.1509C59.8335 31.1509 59.8335 31.1509 59.8335 33.4555C59.8335 33.4555 59.8335 33.4555 57.6283 33.4555C56.6747 33.4555 56.2376 33.0383 56.2376 32.1045C56.2376 32.1045 56.2376 32.1045 56.2376 24.0585C56.2376 24.0585 56.2376 23.9393 56.1383 23.9393C56.1383 23.9393 56.1383 23.9393 51.9067 23.9393C51.9067 23.9393 51.9067 23.9393 51.9067 33.4555C51.9067 33.4555 51.9067 33.4555 49.3637 33.4555C49.3637 33.4555 49.3637 33.4555 49.3637 23.9393C49.3637 23.9393 49.3637 23.9393 48.3108 23.9393C48.3108 23.9393 48.3108 23.9393 48.3108 21.7341Z" fill="#DC3545"/>
<path fill-rule="evenodd" clip-rule="evenodd" d="M66.5087 21.5355H66.5484V23.9593L66.5087 23.9394C64.5816 23.9394 63.1115 25.5089 63.1115 27.4955C63.1115 29.5815 64.5816 31.2702 66.5087 31.2702L66.5484 31.2503V33.6542L66.5087 33.6741C63.1115 33.6741 60.4692 30.9523 60.4692 27.4955C60.4692 24.1579 63.1115 21.5355 66.5087 21.5355Z" fill="#DC3545"/>
<path fill-rule="evenodd" clip-rule="evenodd" d="M66.5483 21.5355L67.7602 21.6547C70.6011 22.1911 72.6275 24.5751 72.6275 27.4955C72.6275 30.5153 70.6011 32.9787 67.7602 33.535L66.5483 33.6542V31.2503L67.8993 30.9722C69.1509 30.3961 69.9853 29.065 69.9853 27.4955C69.9853 26.0055 69.1509 24.7539 67.8993 24.2175L66.5483 23.9593V21.5355Z" fill="#DC3545"/>
<path fill-rule="evenodd" clip-rule="evenodd" d="M73.1641 21.7341C73.1641 21.7341 73.1641 21.7341 75.4885 21.7341C76.3427 21.7341 76.7599 22.1712 76.7599 23.1049C76.7599 23.1049 76.7599 23.1049 76.7599 31.0516C76.7599 31.1509 76.7599 31.1509 76.8593 31.1509C76.8593 31.1509 76.8593 31.1509 79.9187 31.1509C79.9187 31.1509 79.9187 31.1509 79.9187 21.7341C79.9187 21.7341 79.9187 21.7341 82.4617 21.7341C82.4617 21.7341 82.4617 21.7341 82.4617 31.1509C82.4617 31.1509 82.4617 31.1509 85.541 31.1509C85.6403 31.1509 85.6403 31.1509 85.6403 31.0516C85.6403 31.0516 85.6403 31.0516 85.6403 23.1049C85.6403 22.1712 86.0575 21.7341 86.9118 21.7341C86.9118 21.7341 86.9118 21.7341 89.2362 21.7341C89.2362 21.7341 89.2362 21.7341 89.2362 23.9393C89.2362 23.9393 89.2362 23.9393 88.2826 23.9393C88.1634 23.9393 88.1634 24.0585 88.1634 24.0585C88.1634 24.0585 88.1634 24.0585 88.1634 32.1045C88.1634 33.0383 87.7462 33.4555 86.9118 33.4555C86.9118 33.4555 86.9118 33.4555 75.5878 33.4555C74.6342 33.4555 74.217 33.0383 74.217 32.1045C74.217 32.1045 74.217 32.1045 74.217 24.0585C74.217 24.0585 74.217 23.9393 74.1177 23.9393C74.1177 23.9393 74.1177 23.9393 73.1641 23.9393C73.1641 23.9393 73.1641 23.9393 73.1641 21.7341Z" fill="#DC3545"/>
<path fill-rule="evenodd" clip-rule="evenodd" d="M91.2427 21.7341C91.2427 21.7341 91.2427 21.7341 99.1695 21.7341C100.123 21.7341 100.441 22.1712 100.441 23.0056C100.441 23.0056 100.441 23.0056 100.441 24.9923H98.1166C98.1166 24.9923 98.1166 24.9923 98.1166 24.0585C98.1166 23.9393 98.1166 23.9393 97.9974 23.9393C97.9974 23.9393 97.9974 23.9393 96.5272 23.9393C96.5272 23.9393 96.5272 23.9393 96.5272 33.4555C96.5272 33.4555 96.5272 33.4555 93.9843 33.4555C93.9843 33.4555 93.9843 33.4555 93.9843 23.9393C93.9843 23.9393 93.9843 23.9393 92.5142 23.9393C92.395 23.9393 92.395 23.9393 92.395 24.0585C92.395 24.0585 92.395 24.0585 92.395 24.9923C92.395 24.9923 92.395 24.9923 90.0706 24.9923C90.0706 24.9923 90.0706 24.9923 90.0706 23.0056C90.0706 22.1712 90.3884 21.7341 91.2427 21.7341Z" fill="#DC3545"/>
<path fill-rule="evenodd" clip-rule="evenodd" d="M103.719 21.7341C103.719 21.7341 103.719 21.7341 104.792 21.7341H104.99V25.0916C104.871 25.3101 104.772 25.6081 104.772 25.926C104.772 25.926 104.772 25.926 103.918 28.3299C103.918 28.3299 103.918 28.3299 104.812 28.3299H104.99V30.5351H104.414C104.077 30.5351 103.719 30.5351 103.282 30.5351C103.282 30.5351 103.282 30.5351 102.547 32.3032C102.348 33.1376 101.911 33.4555 101.077 33.4555C101.077 33.4555 101.077 33.4555 99.4873 33.4555C99.4873 33.4555 99.4873 33.4555 99.4873 31.1509C99.4873 31.1509 99.4873 31.1509 100.024 31.1509C100.222 31.1509 100.222 31.1509 100.342 31.0516C100.342 31.0516 100.342 31.0516 103.719 21.754V21.7341Z" fill="#DC3545"/>
<path fill-rule="evenodd" clip-rule="evenodd" d="M104.99 21.7341H106.242C106.242 21.7341 106.242 21.7341 109.639 31.0516C109.739 31.1509 109.739 31.1509 109.957 31.1509H110.374C110.374 31.1509 110.374 31.1509 110.374 33.4555C110.374 33.4555 110.374 33.4555 108.904 33.4555C108.05 33.4555 107.633 33.1376 107.414 32.3032C107.414 32.3032 107.414 32.3032 106.679 30.5351C106.679 30.5351 106.679 30.5351 105.249 30.5351H104.99V28.3299H106.043C106.043 28.3299 106.043 28.3299 105.189 25.926C105.189 25.6081 105.09 25.3101 104.99 25.0916V21.7341Z" fill="#DC3545"/>
<path fill-rule="evenodd" clip-rule="evenodd" d="M32.0202 11.6617C32.1394 11.622 32.2983 11.7014 32.4573 11.92C32.4573 11.92 32.4573 11.92 39.649 18.913C40.0662 19.3302 40.0662 19.966 39.649 20.2838C39.649 20.2838 39.649 20.2838 32.4573 27.3961C32.2983 27.5948 32.1394 27.6544 32.0202 27.5948C31.901 27.5352 31.8215 27.3365 31.8215 27.0782V12.1186C31.8215 11.8604 31.901 11.7014 32.0202 11.6617Z" fill="#DC3545"/>
<path fill-rule="evenodd" clip-rule="evenodd" d="M19.7227 0H20.2392L20.716 0.198667C20.716 0.198667 20.716 0.198667 28.1262 7.52947C28.4441 7.94667 28.3249 8.24467 27.8084 8.24467C27.8084 8.24467 27.8084 8.24467 24.729 8.24467C24.2125 8.24467 23.7754 8.68173 23.7754 9.19827C23.7754 9.19827 23.7754 9.19827 23.7754 14.6417C23.7754 15.1583 23.3582 15.5755 22.7225 15.5755C22.7225 15.5755 22.7225 15.5755 17.3387 15.5755C16.8023 15.5755 16.3851 15.1583 16.3851 14.6417C16.3851 14.6417 16.3851 14.6417 16.3851 9.19827C16.3851 8.68173 15.9679 8.24467 15.4315 8.24467H12.1535C11.6171 8.24467 11.5177 7.94667 11.8356 7.52947C11.8356 7.52947 11.8356 7.52947 19.2459 0.198667L19.7227 0Z" fill="#DC3545"/>
<path fill-rule="evenodd" clip-rule="evenodd" d="M8.14037 11.5028C8.25957 11.5822 8.33903 11.761 8.33903 12.0193V27.2769C8.33903 27.555 8.25957 27.714 8.14037 27.7537C8.0013 27.8133 7.8225 27.7537 7.60397 27.5948C7.60397 27.5948 7.60397 27.5948 0.3129 20.2838C-0.1043 19.966 -0.1043 19.3302 0.3129 18.913C0.3129 18.913 0.3129 18.913 7.60397 11.7014C7.8225 11.5028 8.0013 11.4432 8.14037 11.5028Z" fill="#DC3545"/>
<path fill-rule="evenodd" clip-rule="evenodd" d="M17.3386 23.5221C17.3386 23.5221 17.3386 23.5221 22.7225 23.5221C23.3582 23.5221 23.7953 23.9393 23.7953 24.4757C23.7953 24.4757 23.7953 24.4757 23.7953 30.2172C23.7953 30.8529 24.2125 31.2701 24.729 31.2701H27.5898C28.1262 31.2701 28.3249 31.5681 27.9077 31.886C27.9077 31.886 27.9077 31.886 20.7159 39.0976C20.4974 39.3161 20.2391 39.4154 19.9809 39.4154C19.7226 39.4154 19.4445 39.3161 19.2458 39.0976C19.2458 39.0976 19.2458 39.0976 12.0541 31.886C11.617 31.5681 11.8355 31.2701 12.3521 31.2701C12.3521 31.2701 12.3521 31.2701 15.4314 31.2701C15.9678 31.2701 16.385 30.8529 16.385 30.2172C16.385 30.2172 16.385 30.2172 16.385 24.4757C16.385 23.9393 16.8022 23.5221 17.3386 23.5221Z" fill="#DC3545"/>
<path fill-rule="evenodd" clip-rule="evenodd" d="M48.3108 6.67517C48.3108 6.67517 48.3108 6.67517 50.6352 6.67517C51.4895 6.67517 51.9067 7.09237 51.9067 8.04597C51.9067 8.04597 51.9067 8.04597 51.9067 11.3836C51.9067 11.3836 51.9067 11.3836 56.4561 11.3836C56.4561 11.3836 56.4561 11.3836 56.4561 8.04597C56.4561 7.09237 56.8733 6.67517 57.8269 6.67517C57.8269 6.67517 57.8269 6.67517 60.052 6.67517C60.052 6.67517 60.052 6.67517 60.052 8.88037C60.052 8.88037 60.052 8.88037 59.0984 8.88037L58.9991 8.9797C58.9991 8.9797 58.9991 8.9797 58.9991 18.3965C58.9991 18.3965 58.9991 18.3965 56.4561 18.3965C56.4561 18.3965 56.4561 18.3965 56.4561 13.6881C56.4561 13.6881 56.4561 13.6881 51.9067 13.6881C51.9067 13.6881 51.9067 13.6881 51.9067 18.3965C51.9067 18.3965 51.9067 18.3965 49.3637 18.3965C49.3637 18.3965 49.3637 18.3965 49.3637 8.9797C49.3637 8.9797 49.3637 8.88037 49.2644 8.88037C49.2644 8.88037 49.2644 8.88037 48.3108 8.88037C48.3108 8.88037 48.3108 8.88037 48.3108 6.67517Z" fill="#ED1C24"/>
<path fill-rule="evenodd" clip-rule="evenodd" d="M66.7074 6.47656H66.767V8.9003L66.7074 8.88043C64.8002 8.88043 63.3301 10.4499 63.3301 12.4366C63.3301 14.5226 64.8002 16.2112 66.7074 16.2112L66.767 16.1914V18.5952L66.7074 18.6151C63.3301 18.6151 60.5686 15.8934 60.5686 12.4366C60.5686 9.09896 63.3301 6.47656 66.7074 6.47656Z" fill="#ED1C24"/>
<path fill-rule="evenodd" clip-rule="evenodd" d="M66.7668 6.47656L67.939 6.59576C70.7402 7.13216 72.846 9.51616 72.846 12.4366C72.846 15.4563 70.7402 17.9198 67.939 18.476L66.7668 18.5952V16.1914L68.0582 15.9132C69.3098 15.3371 70.2038 14.006 70.2038 12.4366C70.2038 10.9466 69.3098 9.69496 68.0582 9.15856L66.7668 8.9003V6.47656Z" fill="#ED1C24"/>
<path fill-rule="evenodd" clip-rule="evenodd" d="M73.3625 6.67517C73.3625 6.67517 73.3625 6.67517 76.9187 6.67517H78.6073V8.88037H78.4484C78.2299 8.88037 77.8127 8.88037 76.9584 8.88037C76.9584 8.88037 76.9584 8.88037 76.9584 11.2842C76.9584 11.2842 76.9584 11.2842 77.6736 11.2842H78.6073V13.3702H78.0709C77.7928 13.3702 77.4352 13.3702 76.9584 13.3702C76.9584 13.3702 76.9584 13.3702 76.9584 15.9926C76.9584 16.092 76.9584 16.092 77.0776 16.092C77.0776 16.092 77.0776 16.092 77.8325 16.092H78.6073V18.3965H78.3888C77.9915 18.3965 77.2365 18.3965 75.7068 18.3965C74.8525 18.3965 74.4353 17.9793 74.4353 17.0456V8.88037C74.4353 8.88037 74.4353 8.88037 73.3625 8.88037C73.3625 8.88037 73.3625 8.88037 73.3625 6.67517Z" fill="#ED1C24"/>
<path fill-rule="evenodd" clip-rule="evenodd" d="M78.6074 6.67517H78.6472C80.9914 6.67517 82.3622 7.94664 82.3622 9.83397C82.3622 10.9664 81.8258 11.7014 81.3093 12.2378C82.2629 12.655 82.8788 13.6881 82.8788 14.8404C82.8788 17.0456 81.1901 18.3965 78.7664 18.3965C78.7664 18.3965 78.7664 18.3965 78.7266 18.3965H78.6074V16.092H78.8657C79.72 16.092 80.2365 15.5754 80.2365 14.741C80.2365 13.9066 79.72 13.3702 78.8657 13.3702C78.8657 13.3702 78.8657 13.3702 78.6273 13.3702H78.6074V11.2842H78.6472C79.4021 11.2842 79.8193 10.7677 79.8193 10.0326C79.8193 9.29757 79.4021 8.88037 78.6472 8.88037C78.6472 8.88037 78.6472 8.88037 78.6273 8.88037H78.6074V6.67517Z" fill="#ED1C24"/>
<path fill-rule="evenodd" clip-rule="evenodd" d="M87.746 6.67517C87.746 6.67517 87.746 6.67517 88.8188 6.67517H89.0175V10.0326C88.9181 10.2512 88.7989 10.5492 88.7989 10.867C88.7989 10.867 88.7989 10.867 87.9645 13.2709C87.9645 13.2709 87.9645 13.2709 88.8585 13.2709H89.0175V15.4761H88.4413C88.1235 15.4761 87.746 15.4761 87.3288 15.4761C87.3288 15.4761 87.3288 15.4761 86.5937 17.3634C86.3752 18.0786 85.958 18.3965 85.1037 18.3965C85.1037 18.3965 85.1037 18.3965 83.5144 18.3965C83.5144 18.3965 83.5144 18.3965 83.5144 16.092C83.5144 16.092 83.5144 16.092 84.0508 16.092C84.2693 16.092 84.2693 16.092 84.3687 15.9926C84.3687 15.9926 84.3687 15.9926 87.746 6.67517Z" fill="#ED1C24"/>
<path fill-rule="evenodd" clip-rule="evenodd" d="M89.0176 6.67517H90.289C90.289 6.67517 90.289 6.67517 93.6664 15.9926C93.7657 16.092 93.7657 16.092 93.9842 16.092C93.9842 16.092 93.9842 16.092 94.4014 16.092C94.4014 16.092 94.4014 16.092 94.4014 18.3965C94.4014 18.3965 94.4014 18.3965 92.9313 18.3965C92.077 18.3965 91.6598 18.0786 91.4413 17.2442C91.4413 17.2442 91.4413 17.2442 90.7062 15.4761C90.7062 15.4761 90.7062 15.4761 89.2758 15.4761H89.0176V13.2709H90.0705C90.0705 13.2709 90.0705 13.2709 89.2361 10.867C89.2361 10.5492 89.1169 10.2512 89.0176 10.0326V6.67517Z" fill="#ED1C24"/>
<path fill-rule="evenodd" clip-rule="evenodd" d="M48.3108 21.7341C48.3108 21.7341 48.3108 21.7341 57.5091 21.7341C58.3633 21.7341 58.8799 22.1712 58.8799 23.1049C58.8799 23.1049 58.8799 23.1049 58.8799 31.0516C58.8799 31.1509 58.8799 31.1509 58.9991 31.1509C58.9991 31.1509 58.9991 31.1509 59.8335 31.1509C59.8335 31.1509 59.8335 31.1509 59.8335 33.4555C59.8335 33.4555 59.8335 33.4555 57.6283 33.4555C56.6747 33.4555 56.2376 33.0383 56.2376 32.1045C56.2376 32.1045 56.2376 32.1045 56.2376 24.0585C56.2376 24.0585 56.2376 23.9393 56.1383 23.9393C56.1383 23.9393 56.1383 23.9393 51.9067 23.9393C51.9067 23.9393 51.9067 23.9393 51.9067 33.4555C51.9067 33.4555 51.9067 33.4555 49.3637 33.4555C49.3637 33.4555 49.3637 33.4555 49.3637 23.9393C49.3637 23.9393 49.3637 23.9393 48.3108 23.9393C48.3108 23.9393 48.3108 23.9393 48.3108 21.7341Z" fill="#ED1C24"/>
<path fill-rule="evenodd" clip-rule="evenodd" d="M66.5087 21.5355H66.5484V23.9593L66.5087 23.9394C64.5816 23.9394 63.1115 25.5089 63.1115 27.4955C63.1115 29.5815 64.5816 31.2702 66.5087 31.2702L66.5484 31.2503V33.6542L66.5087 33.6741C63.1115 33.6741 60.4692 30.9523 60.4692 27.4955C60.4692 24.1579 63.1115 21.5355 66.5087 21.5355Z" fill="#ED1C24"/>
<path fill-rule="evenodd" clip-rule="evenodd" d="M66.5483 21.5355L67.7602 21.6547C70.6011 22.1911 72.6275 24.5751 72.6275 27.4955C72.6275 30.5153 70.6011 32.9787 67.7602 33.535L66.5483 33.6542V31.2503L67.8993 30.9722C69.1509 30.3961 69.9853 29.065 69.9853 27.4955C69.9853 26.0055 69.1509 24.7539 67.8993 24.2175L66.5483 23.9593V21.5355Z" fill="#ED1C24"/>
<path fill-rule="evenodd" clip-rule="evenodd" d="M73.1641 21.7341C73.1641 21.7341 73.1641 21.7341 75.4885 21.7341C76.3427 21.7341 76.7599 22.1712 76.7599 23.1049C76.7599 23.1049 76.7599 23.1049 76.7599 31.0516C76.7599 31.1509 76.7599 31.1509 76.8593 31.1509C76.8593 31.1509 76.8593 31.1509 79.9187 31.1509C79.9187 31.1509 79.9187 31.1509 79.9187 21.7341C79.9187 21.7341 79.9187 21.7341 82.4617 21.7341C82.4617 21.7341 82.4617 21.7341 82.4617 31.1509C82.4617 31.1509 82.4617 31.1509 85.541 31.1509C85.6403 31.1509 85.6403 31.1509 85.6403 31.0516C85.6403 31.0516 85.6403 31.0516 85.6403 23.1049C85.6403 22.1712 86.0575 21.7341 86.9118 21.7341C86.9118 21.7341 86.9118 21.7341 89.2362 21.7341C89.2362 21.7341 89.2362 21.7341 89.2362 23.9393C89.2362 23.9393 89.2362 23.9393 88.2826 23.9393C88.1634 23.9393 88.1634 24.0585 88.1634 24.0585C88.1634 24.0585 88.1634 24.0585 88.1634 32.1045C88.1634 33.0383 87.7462 33.4555 86.9118 33.4555C86.9118 33.4555 86.9118 33.4555 75.5878 33.4555C74.6342 33.4555 74.217 33.0383 74.217 32.1045C74.217 32.1045 74.217 32.1045 74.217 24.0585C74.217 24.0585 74.217 23.9393 74.1177 23.9393C74.1177 23.9393 74.1177 23.9393 73.1641 23.9393C73.1641 23.9393 73.1641 23.9393 73.1641 21.7341Z" fill="#ED1C24"/>
<path fill-rule="evenodd" clip-rule="evenodd" d="M91.2427 21.7341C91.2427 21.7341 91.2427 21.7341 99.1695 21.7341C100.123 21.7341 100.441 22.1712 100.441 23.0056C100.441 23.0056 100.441 23.0056 100.441 24.9923H98.1166C98.1166 24.9923 98.1166 24.9923 98.1166 24.0585C98.1166 23.9393 98.1166 23.9393 97.9974 23.9393C97.9974 23.9393 97.9974 23.9393 96.5272 23.9393C96.5272 23.9393 96.5272 23.9393 96.5272 33.4555C96.5272 33.4555 96.5272 33.4555 93.9843 33.4555C93.9843 33.4555 93.9843 33.4555 93.9843 23.9393C93.9843 23.9393 93.9843 23.9393 92.5142 23.9393C92.395 23.9393 92.395 23.9393 92.395 24.0585C92.395 24.0585 92.395 24.0585 92.395 24.9923C92.395 24.9923 92.395 24.9923 90.0706 24.9923C90.0706 24.9923 90.0706 24.9923 90.0706 23.0056C90.0706 22.1712 90.3884 21.7341 91.2427 21.7341Z" fill="#ED1C24"/>
<path fill-rule="evenodd" clip-rule="evenodd" d="M103.719 21.7341C103.719 21.7341 103.719 21.7341 104.792 21.7341H104.99V25.0916C104.871 25.3101 104.772 25.6081 104.772 25.926C104.772 25.926 104.772 25.926 103.918 28.3299C103.918 28.3299 103.918 28.3299 104.812 28.3299H104.99V30.5351H104.414C104.077 30.5351 103.719 30.5351 103.282 30.5351C103.282 30.5351 103.282 30.5351 102.547 32.3032C102.348 33.1376 101.911 33.4555 101.077 33.4555C101.077 33.4555 101.077 33.4555 99.4873 33.4555C99.4873 33.4555 99.4873 33.4555 99.4873 31.1509C99.4873 31.1509 99.4873 31.1509 100.024 31.1509C100.222 31.1509 100.222 31.1509 100.342 31.0516C100.342 31.0516 100.342 31.0516 103.719 21.754V21.7341Z" fill="#ED1C24"/>
<path fill-rule="evenodd" clip-rule="evenodd" d="M104.99 21.7341H106.242C106.242 21.7341 106.242 21.7341 109.639 31.0516C109.739 31.1509 109.739 31.1509 109.957 31.1509H110.374C110.374 31.1509 110.374 31.1509 110.374 33.4555C110.374 33.4555 110.374 33.4555 108.904 33.4555C108.05 33.4555 107.633 33.1376 107.414 32.3032C107.414 32.3032 107.414 32.3032 106.679 30.5351C106.679 30.5351 106.679 30.5351 105.249 30.5351H104.99V28.3299H106.043C106.043 28.3299 106.043 28.3299 105.189 25.926C105.189 25.6081 105.09 25.3101 104.99 25.0916V21.7341Z" fill="#ED1C24"/>
<path fill-rule="evenodd" clip-rule="evenodd" d="M32.0202 11.6617C32.1394 11.622 32.2983 11.7014 32.4573 11.92C32.4573 11.92 32.4573 11.92 39.649 18.913C40.0662 19.3302 40.0662 19.966 39.649 20.2838C39.649 20.2838 39.649 20.2838 32.4573 27.3961C32.2983 27.5948 32.1394 27.6544 32.0202 27.5948C31.901 27.5352 31.8215 27.3365 31.8215 27.0782V12.1186C31.8215 11.8604 31.901 11.7014 32.0202 11.6617Z" fill="#ED1C24"/>
<path fill-rule="evenodd" clip-rule="evenodd" d="M19.7227 0H20.2392L20.716 0.198667C20.716 0.198667 20.716 0.198667 28.1262 7.52947C28.4441 7.94667 28.3249 8.24467 27.8084 8.24467C27.8084 8.24467 27.8084 8.24467 24.729 8.24467C24.2125 8.24467 23.7754 8.68173 23.7754 9.19827C23.7754 9.19827 23.7754 9.19827 23.7754 14.6417C23.7754 15.1583 23.3582 15.5755 22.7225 15.5755C22.7225 15.5755 22.7225 15.5755 17.3387 15.5755C16.8023 15.5755 16.3851 15.1583 16.3851 14.6417C16.3851 14.6417 16.3851 14.6417 16.3851 9.19827C16.3851 8.68173 15.9679 8.24467 15.4315 8.24467H12.1535C11.6171 8.24467 11.5177 7.94667 11.8356 7.52947C11.8356 7.52947 11.8356 7.52947 19.2459 0.198667L19.7227 0Z" fill="#ED1C24"/>
<path fill-rule="evenodd" clip-rule="evenodd" d="M8.14037 11.5028C8.25957 11.5822 8.33903 11.761 8.33903 12.0193V27.2769C8.33903 27.555 8.25957 27.714 8.14037 27.7537C8.0013 27.8133 7.8225 27.7537 7.60397 27.5948C7.60397 27.5948 7.60397 27.5948 0.3129 20.2838C-0.1043 19.966 -0.1043 19.3302 0.3129 18.913C0.3129 18.913 0.3129 18.913 7.60397 11.7014C7.8225 11.5028 8.0013 11.4432 8.14037 11.5028Z" fill="#ED1C24"/>
<path fill-rule="evenodd" clip-rule="evenodd" d="M17.3386 23.5221C17.3386 23.5221 17.3386 23.5221 22.7225 23.5221C23.3582 23.5221 23.7953 23.9393 23.7953 24.4757C23.7953 24.4757 23.7953 24.4757 23.7953 30.2172C23.7953 30.8529 24.2125 31.2701 24.729 31.2701H27.5898C28.1262 31.2701 28.3249 31.5681 27.9077 31.886C27.9077 31.886 27.9077 31.886 20.7159 39.0976C20.4974 39.3161 20.2391 39.4154 19.9809 39.4154C19.7226 39.4154 19.4445 39.3161 19.2458 39.0976C19.2458 39.0976 19.2458 39.0976 12.0541 31.886C11.617 31.5681 11.8355 31.2701 12.3521 31.2701C12.3521 31.2701 12.3521 31.2701 15.4314 31.2701C15.9678 31.2701 16.385 30.8529 16.385 30.2172C16.385 30.2172 16.385 30.2172 16.385 24.4757C16.385 23.9393 16.8022 23.5221 17.3386 23.5221Z" fill="#ED1C24"/>
</svg>
