<svg width="16" height="24" viewBox="0 0 16 24" fill="none" xmlns="http://www.w3.org/2000/svg">
<path d="M14 0H1.6C1.1758 0.000476422 0.769111 0.1692 0.469156 0.469155C0.169201 0.76911 0.000476422 1.1758 0 1.6V22.4C0.000476422 22.8242 0.169201 23.2309 0.469156 23.5308C0.769111 23.8308 1.1758 23.9995 1.6 24H14C14.4242 23.9995 14.8309 23.8308 15.1308 23.5308C15.4308 23.2309 15.5995 22.8242 15.6 22.4V1.6C15.5995 1.1758 15.4308 0.76911 15.1308 0.469155C14.8309 0.1692 14.4242 0.000476422 14 0ZM14 1.6V3.2H1.6V1.6H14ZM14 4.8L14.0005 16H1.6V4.8H14ZM14 22.4H1.6V17.6H14.0008V22.4H14Z" fill="#F88805"/>
<path d="M8.6 19.2H7V20.8H8.6V19.2Z" fill="#F88805"/>
</svg>
