<svg width="51" height="14" viewBox="0 0 51 14" fill="none" xmlns="http://www.w3.org/2000/svg">
<line x1="27.5" y1="-2.18557e-08" x2="27.5" y2="13" stroke="#ACACAC"/>
<path d="M38.8789 11V3H43.8945V4.03906H40.0859V6.47656H43.6328V7.51172H40.0859V9.96094H43.9414V11H38.8789ZM46.1411 7.4375V11H44.9731V5H46.0942V5.97656H46.1684C46.3064 5.65885 46.5226 5.40365 46.8168 5.21094C47.1137 5.01823 47.4874 4.92188 47.9379 4.92188C48.3468 4.92188 48.7049 5.00781 49.0121 5.17969C49.3194 5.34896 49.5577 5.60156 49.727 5.9375C49.8963 6.27344 49.9809 6.6888 49.9809 7.18359V11H48.8129V7.32422C48.8129 6.88932 48.6996 6.54948 48.4731 6.30469C48.2465 6.05729 47.9353 5.93359 47.5395 5.93359C47.2687 5.93359 47.0278 5.99219 46.8168 6.10937C46.6085 6.22656 46.4431 6.39844 46.3207 6.625C46.201 6.84896 46.1411 7.11979 46.1411 7.4375Z" fill="#9C9C9C"/>
<path d="M1.44531 11.1094V10.0469H1.92578C2.1263 10.0469 2.29167 10.013 2.42188 9.94531C2.55469 9.8776 2.66276 9.78646 2.74609 9.67187C2.83203 9.55469 2.90365 9.42708 2.96094 9.28906L3.07422 9.00391L0.261719 3H1.54297L3.64062 7.625L5.50781 3H6.77344L4.00781 9.61328C3.89063 9.87891 3.75521 10.125 3.60156 10.3516C3.45052 10.5781 3.2487 10.7617 2.99609 10.9023C2.74349 11.0404 2.40885 11.1094 1.99219 11.1094H1.44531ZM6.94086 11V5H8.10883V7.51562H8.67133L10.6518 5H12.0971L9.77289 7.91797L12.1245 11H10.6752L8.86664 8.60156H8.10883V11H6.94086ZM12.5917 13.25V5H13.7323V5.97266H13.83C13.8977 5.84766 13.9953 5.70312 14.1229 5.53906C14.2505 5.375 14.4276 5.23177 14.6542 5.10937C14.8807 4.98438 15.1802 4.92188 15.5526 4.92188C16.037 4.92188 16.4693 5.04427 16.8495 5.28906C17.2297 5.53385 17.5279 5.88672 17.744 6.34766C17.9628 6.80859 18.0721 7.36328 18.0721 8.01172C18.0721 8.66016 17.9641 9.21615 17.7479 9.67969C17.5318 10.1406 17.2349 10.4961 16.8573 10.7461C16.4797 10.9935 16.0487 11.1172 15.5643 11.1172C15.1998 11.1172 14.9016 11.056 14.6698 10.9336C14.4406 10.8112 14.261 10.668 14.1307 10.5039C14.0005 10.3398 13.9003 10.194 13.83 10.0664H13.7596V13.25H12.5917ZM13.7362 8C13.7362 8.42187 13.7974 8.79167 13.9198 9.10938C14.0422 9.42708 14.2193 9.67578 14.4511 9.85547C14.6828 10.0326 14.9667 10.1211 15.3026 10.1211C15.6516 10.1211 15.9432 10.0286 16.1776 9.84375C16.412 9.65625 16.5891 9.40234 16.7089 9.08203C16.8313 8.76172 16.8925 8.40104 16.8925 8C16.8925 7.60417 16.8326 7.2487 16.7128 6.93359C16.5956 6.61849 16.4185 6.36979 16.1815 6.1875C15.9471 6.00521 15.6542 5.91406 15.3026 5.91406C14.9641 5.91406 14.6776 6.0013 14.4432 6.17578C14.2115 6.35026 14.0357 6.59375 13.9159 6.90625C13.7961 7.21875 13.7362 7.58333 13.7362 8Z" fill="white"/>
</svg>
