<svg width="146" height="40" viewBox="0 0 146 40" fill="none" xmlns="http://www.w3.org/2000/svg">
<rect x="69.2881" width="76.7119" height="27.2203" fill="#F88805"/>
<path d="M8.39388 21.6525C6.63636 21.6525 5.13193 21.3046 3.88059 20.6086C2.62924 19.9056 1.66964 18.9284 1.00178 17.6771C0.333927 16.4187 0 14.9599 0 13.3009C0 11.6418 0.333927 10.1865 1.00178 8.93519C1.66964 7.67682 2.62924 6.69964 3.88059 6.00366C5.13193 5.30066 6.63636 4.94916 8.39388 4.94916C9.98267 4.94916 11.357 5.23739 12.517 5.81385C13.684 6.38329 14.5873 7.19174 15.2271 8.23922C15.8668 9.27967 16.1902 10.5029 16.1972 11.9089H10.7982C10.7208 11.0583 10.4748 10.4115 10.06 9.96861C9.65225 9.51869 9.125 9.29373 8.47824 9.29373C7.97207 9.29373 7.52918 9.44136 7.14956 9.73662C6.76993 10.0249 6.47467 10.4642 6.26377 11.0548C6.05287 11.6382 5.94742 12.3729 5.94742 13.2587C5.94742 14.1445 6.05287 14.8826 6.26377 15.4731C6.47467 16.0566 6.76993 16.496 7.14956 16.7913C7.52918 17.0795 7.97207 17.2236 8.47824 17.2236C8.90707 17.2236 9.28669 17.1252 9.6171 16.9284C9.94751 16.7245 10.2147 16.4292 10.4185 16.0426C10.6294 15.6489 10.756 15.1708 10.7982 14.6084H16.1972C16.1761 16.0355 15.8492 17.2799 15.2165 18.3414C14.5838 19.3959 13.6875 20.2114 12.5275 20.7879C11.3746 21.3643 9.99673 21.6525 8.39388 21.6525Z" fill="white"/>
<path d="M23.5928 21.6525C21.8353 21.6525 20.3309 21.3046 19.0796 20.6086C17.8282 19.9056 16.8686 18.9284 16.2008 17.6771C15.5329 16.4187 15.199 14.9599 15.199 13.3009C15.199 11.6418 15.5329 10.1865 16.2008 8.93519C16.8686 7.67682 17.8282 6.69964 19.0796 6.00366C20.3309 5.30066 21.8353 4.94916 23.5928 4.94916C25.3504 4.94916 26.8548 5.30066 28.1061 6.00366C29.3575 6.69964 30.3171 7.67682 30.9849 8.93519C31.6528 10.1865 31.9867 11.6418 31.9867 13.3009C31.9867 14.9599 31.6528 16.4187 30.9849 17.6771C30.3171 18.9284 29.3575 19.9056 28.1061 20.6086C26.8548 21.3046 25.3504 21.6525 23.5928 21.6525ZM23.635 17.3502C24.1271 17.3502 24.5525 17.185 24.911 16.8545C25.2695 16.5241 25.5472 16.0531 25.744 15.4415C25.9409 14.8299 26.0393 14.1023 26.0393 13.2587C26.0393 12.408 25.9409 11.6804 25.744 11.0758C25.5472 10.4642 25.2695 9.99322 24.911 9.6628C24.5525 9.33239 24.1271 9.16719 23.635 9.16719C23.1148 9.16719 22.6684 9.33239 22.2958 9.6628C21.9232 9.99322 21.6385 10.4642 21.4417 11.0758C21.2448 11.6804 21.1464 12.408 21.1464 13.2587C21.1464 14.1023 21.2448 14.8299 21.4417 15.4415C21.6385 16.0531 21.9232 16.5241 22.2958 16.8545C22.6684 17.185 23.1148 17.3502 23.635 17.3502Z" fill="white"/>
<path d="M31.2837 21.3573V5.16006H36.8093V8.23922H36.978C37.3155 7.22689 37.8919 6.42547 38.7074 5.83494C39.5229 5.24442 40.4931 4.94916 41.6179 4.94916C42.7567 4.94916 43.7374 5.25145 44.5599 5.85603C45.3825 6.45359 45.8781 7.24798 46.0468 8.23922H46.2155C46.4897 7.24798 47.0732 6.45359 47.966 5.85603C48.8588 5.25145 49.9063 4.94916 51.1084 4.94916C52.6621 4.94916 53.9204 5.44829 54.8836 6.44656C55.8537 7.44482 56.3388 8.7735 56.3388 10.4326V21.3573H50.5179V11.9089C50.5179 11.1989 50.3386 10.6435 49.9801 10.2428C49.6216 9.83504 49.14 9.63117 48.5354 9.63117C47.9379 9.63117 47.4633 9.83504 47.1118 10.2428C46.7674 10.6435 46.5951 11.1989 46.5951 11.9089V21.3573H41.0273V11.9089C41.0273 11.1989 40.8481 10.6435 40.4895 10.2428C40.131 9.83504 39.6494 9.63117 39.0449 9.63117C38.6441 9.63117 38.2997 9.72256 38.0114 9.90534C37.7232 10.0881 37.4983 10.3517 37.3366 10.6962C37.1819 11.0337 37.1046 11.4379 37.1046 11.9089V21.3573H31.2837Z" fill="white"/>
<path d="M57.2664 27.4312V5.16006H63.0451V7.98614H63.1716C63.3825 7.43779 63.6918 6.93515 64.0996 6.47819C64.5073 6.01421 65.0135 5.64513 65.6181 5.37096C66.2226 5.08976 66.9256 4.94916 67.7271 4.94916C68.7956 4.94916 69.8115 5.23388 70.7746 5.80331C71.7447 6.37274 72.5321 7.26907 73.1367 8.4923C73.7483 9.71553 74.0541 11.3043 74.0541 13.2587C74.0541 15.1287 73.7624 16.6788 73.1789 17.909C72.6024 19.1393 71.8291 20.0567 70.859 20.6613C69.8958 21.2659 68.8378 21.5682 67.6849 21.5682C66.9256 21.5682 66.2472 21.4452 65.6497 21.1991C65.0592 20.946 64.553 20.6051 64.1312 20.1762C63.7164 19.7404 63.3966 19.2483 63.1716 18.6999H63.0872V27.4312H57.2664ZM62.9607 13.2587C62.9607 14.046 63.0626 14.728 63.2665 15.3044C63.4774 15.8738 63.7727 16.3167 64.1523 16.6331C64.5389 16.9424 64.9994 17.0971 65.5337 17.0971C66.068 17.0971 66.5214 16.9459 66.894 16.6436C67.2736 16.3343 67.5619 15.8949 67.7587 15.3255C67.9626 14.749 68.0645 14.0601 68.0645 13.2587C68.0645 12.4572 67.9626 11.7718 67.7587 11.2024C67.5619 10.6259 67.2736 10.1865 66.894 9.88425C66.5214 9.57493 66.068 9.42027 65.5337 9.42027C64.9994 9.42027 64.5389 9.57493 64.1523 9.88425C63.7727 10.1865 63.4774 10.6259 63.2665 11.2024C63.0626 11.7718 62.9607 12.4572 62.9607 13.2587Z" fill="white"/>
<path d="M88.8738 10.6716H83.5169C83.4888 10.3412 83.3728 10.0565 83.1689 9.81746C82.965 9.57844 82.7014 9.39566 82.378 9.26912C82.0617 9.13555 81.7102 9.06876 81.3235 9.06876C80.8244 9.06876 80.3955 9.16015 80.037 9.34293C79.6785 9.52571 79.5027 9.78582 79.5098 10.1233C79.5027 10.3623 79.6047 10.5837 79.8156 10.7876C80.0335 10.9915 80.4518 11.1497 81.0704 11.2621L84.3605 11.8527C86.0196 12.155 87.2534 12.6646 88.0618 13.3817C88.8773 14.0917 89.2886 15.0443 89.2956 16.2394C89.2886 17.3923 88.9441 18.3941 88.2622 19.2448C87.5873 20.0884 86.6628 20.7422 85.4888 21.2061C84.3218 21.6631 82.9896 21.8916 81.4922 21.8916C79.0177 21.8916 77.0809 21.3854 75.6819 20.3731C74.29 19.3607 73.5131 18.025 73.3514 16.3659H79.1301C79.2075 16.8791 79.4606 17.2763 79.8894 17.5575C80.3252 17.8317 80.8736 17.9688 81.5344 17.9688C82.0687 17.9688 82.5081 17.8774 82.8525 17.6946C83.2041 17.5118 83.3833 17.2517 83.3903 16.9143C83.3833 16.605 83.2287 16.3589 82.9264 16.1761C82.6311 15.9934 82.1671 15.8457 81.5344 15.7332L78.6662 15.2271C77.0141 14.9388 75.7768 14.3905 74.9543 13.5821C74.1318 12.7736 73.724 11.7331 73.7311 10.4607C73.724 9.3359 74.0193 8.38333 74.6168 7.60299C75.2214 6.81563 76.0826 6.21808 77.2004 5.81033C78.3252 5.39556 79.6574 5.18817 81.197 5.18817C83.538 5.18817 85.3834 5.67325 86.7331 6.64339C88.0899 7.61354 88.8035 8.95628 88.8738 10.6716Z" fill="#585858"/>
<path d="M94.9712 12.4854V21.5963H89.1503V0H94.7603V8.47824H94.929C95.2945 7.44482 95.9026 6.63988 96.7533 6.06342C97.6039 5.47992 98.6268 5.18817 99.8219 5.18817C100.968 5.18817 101.963 5.44829 102.806 5.96851C103.657 6.48873 104.314 7.2058 104.778 8.1197C105.249 9.03361 105.481 10.0811 105.474 11.2621V21.5963H99.6532V12.4854C99.6602 11.6839 99.4598 11.0547 99.0521 10.5978C98.6514 10.1408 98.0784 9.91237 97.3332 9.91237C96.8622 9.91237 96.4475 10.0178 96.0889 10.2287C95.7374 10.4326 95.4633 10.7279 95.2664 11.1145C95.0766 11.4941 94.9782 11.9511 94.9712 12.4854Z" fill="#585858"/>
<path d="M113.775 21.8916C112.018 21.8916 110.513 21.5436 109.262 20.8476C108.011 20.1446 107.051 19.1674 106.383 17.9161C105.715 16.6577 105.381 15.199 105.381 13.5399C105.381 11.8808 105.715 10.4256 106.383 9.17421C107.051 7.91583 108.011 6.93866 109.262 6.24268C110.513 5.53968 112.018 5.18817 113.775 5.18817C115.533 5.18817 117.037 5.53968 118.289 6.24268C119.54 6.93866 120.5 7.91583 121.167 9.17421C121.835 10.4256 122.169 11.8808 122.169 13.5399C122.169 15.199 121.835 16.6577 121.167 17.9161C120.5 19.1674 119.54 20.1446 118.289 20.8476C117.037 21.5436 115.533 21.8916 113.775 21.8916ZM113.818 17.5892C114.31 17.5892 114.735 17.424 115.093 17.0936C115.452 16.7631 115.73 16.2921 115.927 15.6805C116.123 15.0689 116.222 14.3413 116.222 13.4977C116.222 12.6471 116.123 11.9194 115.927 11.3149C115.73 10.7032 115.452 10.2322 115.093 9.90182C114.735 9.57141 114.31 9.4062 113.818 9.4062C113.297 9.4062 112.851 9.57141 112.478 9.90182C112.106 10.2322 111.821 10.7032 111.624 11.3149C111.427 11.9194 111.329 12.6471 111.329 13.4977C111.329 14.3413 111.427 15.0689 111.624 15.6805C111.821 16.2921 112.106 16.7631 112.478 17.0936C112.851 17.424 113.297 17.5892 113.818 17.5892Z" fill="#585858"/>
<path d="M122.843 27.4312V5.16006H128.622V7.98614H128.748C128.959 7.43779 129.268 6.93515 129.676 6.47819C130.084 6.01421 130.59 5.64513 131.195 5.37096C131.799 5.08976 132.502 4.94916 133.304 4.94916C134.372 4.94916 135.388 5.23388 136.351 5.80331C137.321 6.37274 138.109 7.26907 138.713 8.4923C139.325 9.71553 139.631 11.3043 139.631 13.2587C139.631 15.1287 139.339 16.6788 138.756 17.909C138.179 19.1393 137.406 20.0567 136.436 20.6613C135.472 21.2659 134.414 21.5682 133.262 21.5682C132.502 21.5682 131.824 21.4452 131.226 21.1991C130.636 20.946 130.13 20.6051 129.708 20.1762C129.293 19.7404 128.973 19.2483 128.748 18.6999H128.664V27.4312H122.843ZM128.537 13.2587C128.537 14.046 128.639 14.728 128.843 15.3044C129.054 15.8738 129.349 16.3167 129.729 16.6331C130.116 16.9424 130.576 17.0971 131.11 17.0971C131.645 17.0971 132.098 16.9459 132.471 16.6436C132.85 16.3343 133.139 15.8949 133.335 15.3255C133.539 14.749 133.641 14.0601 133.641 13.2587C133.641 12.4572 133.539 11.7718 133.335 11.2024C133.139 10.6259 132.85 10.1865 132.471 9.88425C132.098 9.57493 131.645 9.42027 131.11 9.42027C130.576 9.42027 130.116 9.57493 129.729 9.88425C129.349 10.1865 129.054 10.6259 128.843 11.2024C128.639 11.7718 128.537 12.4572 128.537 13.2587Z" fill="#585858"/>
<path fill-rule="evenodd" clip-rule="evenodd" d="M69.6348 21.242C69.9517 21.151 70.2639 21.029 70.5753 20.8651C71.7639 20.2443 72.8147 19.0128 73.521 17.7493C74.2359 16.4859 74.5887 14.9119 74.5887 12.9915C74.5887 10.9844 74.1007 9.29856 73.3514 8.04234C72.6106 6.78612 71.7639 6.20866 70.5753 5.62387C70.264 5.46963 69.951 5.32946 69.6348 5.20667V21.242Z" fill="#585858"/>
<path d="M22.2712 37.692V30.9322H22.8028V33.7543H22.8555C22.9609 33.5364 23.1103 33.3362 23.3036 33.1536C23.4969 32.9709 23.737 32.8246 24.024 32.7146C24.311 32.6023 24.6464 32.5462 25.03 32.5462C25.5718 32.5462 26.0448 32.6596 26.4489 32.8862C26.8531 33.1106 27.1665 33.4209 27.389 33.817C27.6116 34.2109 27.7229 34.662 27.7229 35.1703C27.7229 35.683 27.6116 36.1374 27.389 36.5335C27.1665 36.9273 26.8546 37.2365 26.4533 37.461C26.0521 37.6854 25.5791 37.7976 25.0344 37.7976C24.6508 37.7976 24.3154 37.7426 24.0284 37.6326C23.7414 37.5204 23.5013 37.3729 23.308 37.1903C23.1147 37.0055 22.9639 36.8041 22.8555 36.5863H22.794V37.692H22.2712ZM22.7984 35.167C22.7984 35.5983 22.8848 35.9845 23.0576 36.3255C23.2333 36.6644 23.4852 36.9328 23.8132 37.1309C24.1412 37.3267 24.5336 37.4247 24.9905 37.4247C25.4532 37.4247 25.8486 37.3256 26.1766 37.1276C26.5046 36.9273 26.755 36.6567 26.9278 36.3156C27.1035 35.9745 27.1914 35.5917 27.1914 35.167C27.1914 34.7423 27.1035 34.3605 26.9278 34.0216C26.755 33.6828 26.5046 33.4154 26.1766 33.2196C25.8486 33.0215 25.4532 32.9225 24.9905 32.9225C24.5336 32.9225 24.1412 33.0204 23.8132 33.2163C23.4852 33.4099 23.2333 33.6762 23.0576 34.015C22.8848 34.3517 22.7984 34.7357 22.7984 35.167Z" fill="#9C9C9C"/>
<path d="M34.616 37.7976C34.0068 37.7976 33.4767 37.6843 33.0257 37.4577C32.5747 37.231 32.2262 36.9207 31.9802 36.5269C31.7342 36.133 31.6112 35.6841 31.6112 35.1802C31.6112 34.6741 31.7342 34.223 31.9802 33.8269C32.2291 33.4308 32.5703 33.1183 33.0038 32.8895C33.4372 32.6607 33.9321 32.5462 34.4886 32.5462C34.8664 32.5462 35.2237 32.6034 35.5605 32.7179C35.9002 32.8301 36.1989 32.9929 36.4566 33.2064C36.7173 33.4198 36.9208 33.6773 37.0672 33.9787C37.2166 34.2802 37.2913 34.6191 37.2913 34.9953V35.2462H31.9494V34.8798H36.7553C36.7553 34.5123 36.6558 34.1812 36.4566 33.8863C36.2575 33.5914 35.9866 33.3571 35.6439 33.1833C35.3013 33.0094 34.9162 32.9225 34.4886 32.9225C34.0405 32.9225 33.6407 33.0171 33.2893 33.2064C32.9408 33.3934 32.664 33.6465 32.459 33.9655C32.257 34.2846 32.1515 34.6411 32.1427 35.035V35.2C32.1427 35.6225 32.2408 36.0021 32.4371 36.3387C32.6362 36.6732 32.9203 36.9383 33.2893 37.1342C33.6583 37.3278 34.1005 37.4247 34.616 37.4247C34.985 37.4247 35.2998 37.3784 35.5605 37.286C35.824 37.1914 36.0393 37.077 36.2062 36.9428C36.3732 36.8085 36.4991 36.6787 36.584 36.5533L37.0716 36.7018C36.9691 36.8712 36.8095 37.0407 36.5928 37.2101C36.379 37.3773 36.1066 37.5171 35.7757 37.6293C35.4477 37.7415 35.0611 37.7976 34.616 37.7976Z" fill="#9C9C9C"/>
<path d="M45.8361 33.7147L45.3397 33.8137C45.2606 33.6289 45.1479 33.4693 45.0014 33.3351C44.855 33.2009 44.6705 33.0974 44.4479 33.0248C44.2283 32.95 43.9647 32.9126 43.6572 32.9126C43.1623 32.9126 42.7566 33.005 42.4404 33.1899C42.127 33.3747 41.9703 33.6157 41.9703 33.9127C41.9703 34.1548 42.0772 34.355 42.291 34.5134C42.5048 34.6697 42.8313 34.7885 43.2706 34.8699L44.3074 35.0647C44.8404 35.1637 45.2416 35.3243 45.511 35.5466C45.7805 35.7666 45.9152 36.0406 45.9152 36.3684C45.9152 36.6479 45.8141 36.8954 45.6121 37.1111C45.41 37.3267 45.1303 37.4951 44.773 37.6161C44.4186 37.7371 44.0057 37.7976 43.5342 37.7976C42.9045 37.7976 42.3876 37.6876 41.9835 37.4676C41.5793 37.2453 41.3202 36.9273 41.2059 36.5137L41.7199 36.4146C41.8166 36.7447 42.0172 36.9967 42.3217 37.1705C42.6293 37.3421 43.0319 37.428 43.5298 37.428C44.0804 37.428 44.5241 37.33 44.8609 37.1342C45.2006 36.9383 45.3705 36.6875 45.3705 36.3816C45.3705 36.1484 45.2709 35.9514 45.0717 35.7908C44.8726 35.6302 44.5709 35.5125 44.1668 35.4376L43.0905 35.2396C42.5399 35.1384 42.127 34.9766 41.8517 34.7544C41.5764 34.5299 41.4388 34.2538 41.4388 33.9259C41.4388 33.6531 41.5339 33.4132 41.7243 33.2064C41.9147 32.9995 42.1768 32.8378 42.5106 32.7212C42.8445 32.6045 43.2267 32.5462 43.6572 32.5462C44.2283 32.5462 44.6939 32.6474 45.0542 32.8499C45.4144 33.0523 45.675 33.3406 45.8361 33.7147Z" fill="#9C9C9C"/>
<path d="M52.5677 32.6221V32.9819H49.6201V32.6221H52.5677ZM50.6173 31.4075H51.1488V36.4939C51.1488 36.7007 51.2015 36.8701 51.307 37.0022C51.4153 37.132 51.5559 37.2288 51.7287 37.2926C51.9044 37.3542 52.0918 37.385 52.291 37.385C52.3876 37.385 52.4711 37.3795 52.5414 37.3685C52.6146 37.3575 52.6834 37.3432 52.7479 37.3256L52.8796 37.692C52.7976 37.714 52.7069 37.7327 52.6073 37.7481C52.5077 37.7657 52.3906 37.7745 52.2558 37.7745C51.9747 37.7745 51.7082 37.7272 51.4563 37.6326C51.2074 37.538 51.0053 37.4004 50.8501 37.22C50.6949 37.0396 50.6173 36.8217 50.6173 36.5665V31.4075Z" fill="#9C9C9C"/>
<path d="M62.8593 39.5932V32.6221H63.3821V33.7543H63.448C63.5534 33.5364 63.7013 33.3362 63.8916 33.1536C64.0849 32.9709 64.3236 32.8246 64.6077 32.7146C64.8947 32.6023 65.2315 32.5462 65.6181 32.5462C66.1628 32.5462 66.6372 32.6585 67.0414 32.8829C67.4455 33.1073 67.7589 33.4176 67.9815 33.8137C68.2041 34.2076 68.3153 34.6598 68.3153 35.1703C68.3153 35.6808 68.2026 36.1341 67.9771 36.5302C67.7545 36.924 67.4412 37.2343 67.037 37.461C66.6358 37.6854 66.1657 37.7976 65.6269 37.7976C65.2432 37.7976 64.9064 37.7426 64.6165 37.6326C64.3295 37.5226 64.0879 37.3762 63.8916 37.1936C63.6984 37.0088 63.5505 36.8063 63.448 36.5863H63.3952V39.5932H62.8593ZM63.3865 35.167C63.3865 35.5983 63.4743 35.9845 63.65 36.3255C63.8257 36.6644 64.0776 36.9328 64.4056 37.1309C64.7336 37.3267 65.1246 37.4247 65.5785 37.4247C66.0383 37.4247 66.4322 37.3256 66.7602 37.1276C67.0912 36.9273 67.343 36.6567 67.5158 36.3156C67.6916 35.9745 67.7794 35.5917 67.7794 35.167C67.7794 34.7423 67.693 34.3605 67.5202 34.0216C67.3474 33.6828 67.097 33.4154 66.769 33.2196C66.441 33.0215 66.0442 32.9225 65.5785 32.9225C65.1187 32.9225 64.7248 33.0204 64.3968 33.2163C64.0718 33.4099 63.8214 33.6762 63.6456 34.015C63.4728 34.3517 63.3865 34.7357 63.3865 35.167Z" fill="#9C9C9C"/>
<path d="M72.5803 37.692V32.6221H73.1031V33.4143H73.1514C73.2979 33.1547 73.5453 32.9467 73.8938 32.7905C74.2423 32.632 74.6392 32.5528 75.0843 32.5528C75.1312 32.5528 75.178 32.5528 75.2249 32.5528C75.2718 32.5528 75.3157 32.5539 75.3567 32.5561V32.9621C75.3215 32.9599 75.2791 32.9566 75.2293 32.9522C75.1824 32.9456 75.1239 32.9423 75.0536 32.9423C74.6787 32.9423 74.3448 33.0028 74.052 33.1238C73.762 33.2449 73.5336 33.4121 73.3667 33.6256C73.1997 33.8368 73.1163 34.0789 73.1163 34.3517V37.692H72.5803Z" fill="#9C9C9C"/>
<path d="M81.5117 37.7976C80.9553 37.7976 80.4604 37.6854 80.0269 37.461C79.5935 37.2343 79.2523 36.9229 79.0034 36.5269C78.7544 36.1308 78.63 35.6797 78.63 35.1736C78.63 34.6653 78.7544 34.2142 79.0034 33.8203C79.2523 33.4242 79.5935 33.1128 80.0269 32.8862C80.4604 32.6596 80.9553 32.5462 81.5117 32.5462C82.0682 32.5462 82.5631 32.6596 82.9966 32.8862C83.43 33.1128 83.7712 33.4242 84.0201 33.8203C84.2691 34.2164 84.3935 34.6675 84.3935 35.1736C84.3935 35.6797 84.2691 36.1308 84.0201 36.5269C83.7712 36.9229 83.43 37.2343 82.9966 37.461C82.5631 37.6854 82.0682 37.7976 81.5117 37.7976ZM81.5117 37.4247C81.9833 37.4247 82.3947 37.3245 82.7462 37.1243C83.1005 36.924 83.3744 36.6534 83.5676 36.3123C83.7639 35.9712 83.862 35.5917 83.862 35.1736C83.862 34.7555 83.7639 34.377 83.5676 34.0381C83.3714 33.6971 83.0976 33.4264 82.7462 33.2262C82.3947 33.0237 81.9833 32.9225 81.5117 32.9225C81.0402 32.9225 80.6288 33.0237 80.2773 33.2262C79.9259 33.4264 79.6521 33.6971 79.4558 34.0381C79.2596 34.377 79.1615 34.7555 79.1615 35.1736C79.1615 35.5917 79.2582 35.9712 79.4515 36.3123C79.6477 36.6534 79.9215 36.924 80.2729 37.1243C80.6273 37.3245 81.0402 37.4247 81.5117 37.4247Z" fill="#9C9C9C"/>
<path d="M90.967 37.7976C90.4252 37.7976 89.9522 37.6854 89.5481 37.461C89.1439 37.2365 88.8306 36.9273 88.608 36.5335C88.3883 36.1374 88.2785 35.683 88.2785 35.1703C88.2785 34.662 88.3898 34.2109 88.6124 33.817C88.8379 33.4209 89.1527 33.1106 89.5569 32.8862C89.961 32.6596 90.4325 32.5462 90.9714 32.5462C91.358 32.5462 91.6933 32.6023 91.9774 32.7146C92.2644 32.8246 92.5045 32.9709 92.6978 33.1536C92.8941 33.3362 93.0434 33.5364 93.1459 33.7543H93.1986V30.9322H93.7302V37.692H93.2118V36.5863H93.1459C93.0376 36.8041 92.8867 37.0055 92.6934 37.1903C92.5001 37.3729 92.26 37.5204 91.973 37.6326C91.686 37.7426 91.3507 37.7976 90.967 37.7976ZM91.0153 37.4247C91.4722 37.4247 91.8632 37.3267 92.1882 37.1309C92.5163 36.9328 92.7667 36.6644 92.9394 36.3255C93.1152 35.9845 93.203 35.5983 93.203 35.167C93.203 34.7357 93.1152 34.3517 92.9394 34.015C92.7667 33.6762 92.5163 33.4099 92.1882 33.2163C91.8632 33.0204 91.4722 32.9225 91.0153 32.9225C90.5526 32.9225 90.1558 33.0215 89.8248 33.2196C89.4968 33.4154 89.245 33.6828 89.0693 34.0216C88.8965 34.3605 88.8101 34.7423 88.8101 35.167C88.8101 35.5917 88.8965 35.9745 89.0693 36.3156C89.245 36.6567 89.4968 36.9273 89.8248 37.1276C90.1558 37.3256 90.5526 37.4247 91.0153 37.4247Z" fill="#9C9C9C"/>
<path d="M102.877 35.8931V32.6221H103.413V37.692H102.877V36.8701H102.833C102.675 37.132 102.419 37.3454 102.064 37.5105C101.713 37.6755 101.297 37.758 100.817 37.758C100.374 37.758 99.9833 37.6854 99.6436 37.5402C99.3039 37.3949 99.0374 37.1892 98.8441 36.9229C98.6508 36.6545 98.5542 36.3354 98.5542 35.9657V32.6221H99.0901V35.9492C99.0901 36.3717 99.26 36.7139 99.5997 36.9758C99.9423 37.2354 100.385 37.3652 100.926 37.3652C101.278 37.3652 101.601 37.3058 101.897 37.187C102.193 37.0682 102.43 36.8987 102.609 36.6787C102.788 36.4564 102.877 36.1946 102.877 35.8931Z" fill="#9C9C9C"/>
<path d="M110.576 37.7976C110.002 37.7976 109.497 37.6843 109.06 37.4577C108.624 37.2288 108.283 36.9163 108.037 36.5203C107.794 36.1242 107.672 35.6753 107.672 35.1736C107.672 34.6719 107.795 34.223 108.041 33.8269C108.287 33.4308 108.628 33.1183 109.065 32.8895C109.501 32.6607 110.003 32.5462 110.572 32.5462C110.999 32.5462 111.389 32.6122 111.74 32.7443C112.095 32.8763 112.387 33.06 112.619 33.2955C112.853 33.5309 113.002 33.8038 113.067 34.1141H112.522C112.434 33.7708 112.215 33.4869 111.863 33.2625C111.515 33.0358 111.086 32.9225 110.576 32.9225C110.119 32.9225 109.712 33.0193 109.355 33.213C108.997 33.4044 108.716 33.6696 108.511 34.0084C108.306 34.3451 108.204 34.7313 108.204 35.167C108.204 35.5961 108.303 35.9811 108.503 36.3222C108.702 36.6611 108.98 36.9295 109.337 37.1276C109.695 37.3256 110.107 37.4247 110.576 37.4247C110.907 37.4247 111.209 37.3751 111.481 37.2761C111.756 37.1771 111.986 37.0363 112.171 36.8536C112.355 36.671 112.477 36.4575 112.535 36.2133H113.08C113.016 36.5258 112.869 36.8008 112.641 37.0385C112.412 37.2761 112.121 37.4621 111.767 37.5963C111.412 37.7305 111.015 37.7976 110.576 37.7976Z" fill="#9C9C9C"/>
<path d="M119.705 32.6221V32.9819H116.757V32.6221H119.705ZM117.755 31.4075H118.286V36.4939C118.286 36.7007 118.339 36.8701 118.444 37.0022C118.553 37.132 118.693 37.2288 118.866 37.2926C119.042 37.3542 119.229 37.385 119.428 37.385C119.525 37.385 119.608 37.3795 119.679 37.3685C119.752 37.3575 119.821 37.3432 119.885 37.3256L120.017 37.692C119.935 37.714 119.844 37.7327 119.745 37.7481C119.645 37.7657 119.528 37.7745 119.393 37.7745C119.112 37.7745 118.846 37.7272 118.594 37.6326C118.345 37.538 118.143 37.4004 117.987 37.22C117.832 37.0396 117.755 36.8217 117.755 36.5665V31.4075Z" fill="#9C9C9C"/>
</svg>
