<svg width="20" height="17" viewBox="0 0 20 17" fill="none" xmlns="http://www.w3.org/2000/svg">
<path d="M2.16852 2.16195L2.1685 2.16197C1.79747 2.52977 1.50363 2.96595 1.3033 3.44537L2.16852 2.16195ZM2.16852 2.16195C2.53955 1.79413 2.98051 1.5019 3.46644 1.30236C3.95239 1.10281 4.47353 1 5.00002 1C5.52652 1 6.04765 1.10281 6.5336 1.30235C7.01956 1.5019 7.46052 1.79413 7.83149 2.16192L7.83153 2.16197L9.29598 3.61371L10 4.31162L10.704 3.61371L12.1685 2.16197L11.4645 1.45178M2.16852 2.16195L11.4645 1.45178M11.4645 1.45178L12.1685 2.16196C12.918 1.41897 13.9364 1.00001 15 1.00001C16.0637 1.00001 17.082 1.41898 17.8315 2.16196L18.5355 1.45178L17.8315 2.16196C18.5807 2.90465 19 3.91012 19 4.95667C19 6.00323 18.5807 7.00869 17.8315 7.75138L18.5355 8.46156L17.8315 7.75138L10 15.515L2.16851 7.75138L2.16846 7.75134C1.79748 7.38361 1.50364 6.94742 1.3033 6.46797L11.4645 1.45178ZM1 4.95667C1 4.4383 1.10298 3.92479 1.30329 3.44539V6.46796C1.10298 5.98856 1 5.47505 1 4.95667Z" stroke="#F88805" stroke-width="2"/>
</svg>
