<svg width="17" height="15" viewBox="0 0 17 15" fill="none" xmlns="http://www.w3.org/2000/svg">
<path fill-rule="evenodd" clip-rule="evenodd" d="M12.1521 6.75766C12.0351 8.90365 9.91484 10.9066 6.98248 10.7774C4.05012 10.6481 2.15807 8.4684 2.27515 6.32241C2.39222 4.17642 4.51244 2.17348 7.4448 2.3027C10.3772 2.43193 12.2692 4.61167 12.1521 6.75766ZM11.4946 11.4551C10.2265 12.3481 8.60882 12.8509 6.87353 12.7744C3.04258 12.6056 0.0892502 9.6775 0.277084 6.23436C0.464918 2.79122 3.72279 0.136855 7.55374 0.305674C11.3847 0.474494 14.338 3.40257 14.1502 6.84571C14.0849 8.04167 13.6493 9.14248 12.9479 10.0629L17.0072 13.4192L15.5692 14.8241L11.4946 11.4551Z" fill="#333333"/>
</svg>
